<?xml version="1.0" encoding="utf-8"?><!-- Uploaded to: SVG Repo, www.svgrepo.com, Generator: SVG Repo Mixer Tools -->
<svg fill="#000000" width="800px" height="800px" viewBox="0 0 24 24" id="garage-car" data-name="Flat Line" xmlns="http://www.w3.org/2000/svg" class="icon flat-line"><path id="secondary" d="M16,15l-.81-3.24a1,1,0,0,0-1-.76H9.78a1,1,0,0,0-1,.76L8,15Z" style="fill: rgb(44, 169, 188); stroke-width: 2;"></path><path id="primary" d="M16,15l-.81-3.24a1,1,0,0,0-1-.76H9.78a1,1,0,0,0-1,.76L8,15Zm1,1a1,1,0,0,0-1-1H8a1,1,0,0,0-1,1v3H17Zm-7,4V19H8v1a1,1,0,0,0,1,1H9A1,1,0,0,0,10,20Zm5,1h0a1,1,0,0,0,1-1V19H14v1A1,1,0,0,0,15,21Z" style="fill: none; stroke: rgb(0, 0, 0); stroke-linecap: round; stroke-linejoin: round; stroke-width: 2;"></path><path id="primary-2" data-name="primary" d="M3,21V7.65a1,1,0,0,1,.59-.91L12,3l8.41,3.74a1,1,0,0,1,.59.91V21" style="fill: none; stroke: rgb(0, 0, 0); stroke-linecap: round; stroke-linejoin: round; stroke-width: 2;"></path></svg>